# xmcd
#
# Track frame offsets: 
#        150
#        11232
#        22017
#        33062
#        44545
#        56247
#        66632
#        77575
#        88422
#        99942
#        110942
#        123050
#        130997
#        141760
#        153367
#        166357
#        179237
#
# Disc length: 2553 seconds
#
# Revision: 0
# Processed by: cddbd v1.5.2PL0 Copyright (c) Steve Scherf et al.
# Submitted via: ExactAudioCopyFreeDBPlugin 1.0
#
DISCID=f609f711
DTITLE=Gene Chandler - The Duke Of Earl (Japan)
DYEAR=1961
DGENRE=Pop
TTITLE0=Duke Of Earl
TTITLE1=Stand By Me
TTITLE2=Festival Of Love
TTITLE3=Daddy's Home
TTITLE4=I Wake Up Crying
TTITLE5=Turn On Your Love Light
TTITLE6=Nite Owl
TTITLE7=I'll Follow You
TTITLE8=The Big Lie
TTITLE9=Kissin' In The Kitchen
TTITLE10=So Many Ways
TTITLE11=Lonely Island
TTITLE12=Rainbow
TTITLE13=You Threw A Lucky Punch
TTITLE14=Check Yourself
TTITLE15=Baby That's Love
TTITLE16=Man's Temptation
EXTD=
EXTT0=
EXTT1=
EXTT2=
EXTT3=
EXTT4=
EXTT5=
EXTT6=
EXTT7=
EXTT8=
EXTT9=
EXTT10=
EXTT11=
EXTT12=
EXTT13=
EXTT14=
EXTT15=
EXTT16=
PLAYORDER=
